<svg width="34" height="11" viewBox="0 0 34 11" fill="none" xmlns="http://www.w3.org/2000/svg">
<g clip-path="url(#clip0_98_421)">
<path d="M33.9819 1.4589C33.926 1.4589 33.8689 1.46583 33.8146 1.45774C32.9777 1.33722 32.1404 1.35031 31.3034 1.45466C30.769 1.52128 30.2248 1.55478 29.7048 1.67723C29.0195 1.83818 28.3449 2.04958 27.6815 2.27946C26.7525 2.60098 25.9122 3.08038 25.1456 3.66683C24.0156 4.53129 23.1281 5.58058 22.5554 6.83818C22.2545 7.49856 21.9956 8.18396 21.8077 8.879C21.6363 9.51319 21.5861 10.1763 21.4817 10.8266C21.4751 10.8682 21.4599 10.9086 21.4349 11.0003C21.3547 10.9102 21.2902 10.8582 21.2528 10.792C20.7566 9.91404 20.1215 9.13352 19.3951 8.41269C18.3777 7.40306 17.2198 6.56556 15.9298 5.88631C15.0896 5.44388 14.2078 5.09386 13.2866 4.8247C12.3884 4.56209 11.4718 4.39113 10.537 4.33953C9.90559 4.30449 9.26884 4.34145 8.63538 4.36725C7.85353 4.39921 7.09058 4.55786 6.34449 4.76425C4.93575 5.1547 3.62937 5.75578 2.41219 6.52705C1.61225 7.03379 0.856705 7.5929 0.150076 8.21015C0.114724 8.24095 0.0616957 8.25366 0.0168891 8.27484C0.0127784 8.22363 -0.0110637 8.16471 0.00743448 8.12197C0.552102 6.8351 1.35122 5.70187 2.34683 4.68146C3.44727 3.55362 4.71994 2.63217 6.16115 1.93021C6.87066 1.58481 7.62826 1.31874 8.38216 1.06344C9.80857 0.580192 11.2946 0.44388 12.802 0.495093C13.8025 0.529364 14.7788 0.696865 15.742 0.961016C17.1232 1.33991 18.3954 1.92559 19.5822 2.67877C19.7565 2.78966 19.8547 2.75616 20.0019 2.64642C20.9317 1.95562 21.9483 1.40345 23.0393 0.962171C23.9206 0.605606 24.8324 0.353006 25.77 0.184735C26.2115 0.105413 26.6641 0.0753784 27.113 0.040723C27.4661 0.0133838 27.8229 -0.00856462 28.1764 0.00375729C28.92 0.0299413 29.6583 0.0973268 30.3921 0.231713C31.2257 0.384196 32.031 0.616387 32.824 0.89132C33.1627 1.00876 33.4924 1.14931 33.8237 1.28447C33.8882 1.31065 33.9421 1.35955 34.0009 1.39767L33.9828 1.45928L33.9819 1.4589Z" fill="#2E368F"/>
</g>
<defs>
<clipPath id="clip0_98_421">
<rect width="34" height="11" fill="white"/>
</clipPath>
</defs>
</svg>
