<svg width="16" height="16" viewBox="0 0 16 16" fill="none" xmlns="http://www.w3.org/2000/svg">
<path d="M11.9591 2.8208C11.4513 2.8208 11.0371 3.2393 11.0371 3.75231C11.0371 4.26531 11.4513 4.68382 11.9591 4.68382C12.4668 4.68382 12.8811 4.26531 12.8811 3.75231C12.8811 3.2393 12.4668 2.8208 11.9591 2.8208Z" fill="#2E368F"/>
<path d="M7.88392 4.00928C5.75935 4.00928 4.03564 5.75079 4.03564 7.89732C4.03564 10.0438 5.75935 11.7854 7.88392 11.7854C10.0085 11.7854 11.7322 10.0438 11.7322 7.89732C11.7322 5.75079 10.0085 4.00928 7.88392 4.00928ZM7.88392 10.3948C6.52099 10.3948 5.41194 9.27433 5.41194 7.89732C5.41194 6.5203 6.52099 5.39979 7.88392 5.39979C9.24685 5.39979 10.3559 6.5203 10.3559 7.89732C10.3559 9.27433 9.24685 10.3948 7.88392 10.3948Z" fill="#2E368F"/>
<path d="M10.9302 15.7952H4.69009C2.09785 15.7952 0 13.6621 0 11.0566V4.73855C0 2.11952 2.11121 0 4.69009 0H10.9302C13.5224 0 15.6203 2.13302 15.6203 4.73855V11.0431C15.6203 13.6621 13.509 15.7817 10.9302 15.7817V15.7952ZM4.69009 1.48501C2.91293 1.48501 1.46983 2.94303 1.46983 4.73855V11.0431C1.46983 12.8386 2.91293 14.2966 4.69009 14.2966H10.9302C12.7073 14.2966 14.1504 12.8386 14.1504 11.0431V4.73855C14.1504 2.94303 12.7073 1.48501 10.9302 1.48501H4.69009Z" fill="#2E368F"/>
</svg>
