<svg width="82" height="82" viewBox="0 0 82 82" fill="none" xmlns="http://www.w3.org/2000/svg">
<mask id="mask0_45_1848" style="mask-type:alpha" maskUnits="userSpaceOnUse" x="0" y="0" width="82" height="82">
<rect width="81.533" height="81.533" fill="#D9D9D9"/>
</mask>
<g mask="url(#mask0_45_1848)">
<path d="M21.0628 68.9633C19.8342 68.9633 18.791 68.5344 17.9332 67.6766C17.0754 66.8188 16.6465 65.7756 16.6465 64.547V30.2352C15.5141 30.0653 14.5515 29.5133 13.7588 28.579C12.9662 27.6448 12.5698 26.6115 12.5698 25.4791V16.9861C12.5698 15.7574 12.9987 14.7142 13.8565 13.8564C14.7143 12.9986 15.7575 12.5697 16.9862 12.5697H64.5471C65.7757 12.5697 66.819 12.9986 67.6768 13.8564C68.5346 14.7142 68.9635 15.7574 68.9635 16.9861V25.4791C68.9635 26.6115 68.5671 27.6448 67.7744 28.579C66.9818 29.5133 66.0192 30.0653 64.8868 30.2352V64.5351C64.8868 65.7886 64.4579 66.8401 63.6001 67.6894C62.7423 68.5387 61.6991 68.9633 60.4704 68.9633H21.0628ZM18.3451 29.8955V64.1223C18.3451 65.0282 18.6706 65.7785 19.3218 66.373C19.9729 66.9675 20.7797 67.2647 21.7423 67.2647H60.4704C61.2631 67.2647 61.9142 67.0099 62.4238 66.5004C62.9334 65.9908 63.1882 65.3396 63.1882 64.547V29.8955H18.3451ZM16.9862 28.1969H64.5471C65.3398 28.1969 65.9909 27.9421 66.5005 27.4325C67.0101 26.9229 67.2649 26.2718 67.2649 25.4791V16.9861C67.2649 16.1934 67.0101 15.5423 66.5005 15.0327C65.9909 14.5231 65.3398 14.2683 64.5471 14.2683H16.9862C16.1935 14.2683 15.5424 14.5231 15.0328 15.0327C14.5232 15.5423 14.2684 16.1934 14.2684 16.9861V25.4791C14.2684 26.2718 14.5232 26.9229 15.0328 27.4325C15.5424 27.9421 16.1935 28.1969 16.9862 28.1969ZM34.3119 41.8706H47.2213V40.7665H34.3119V41.8706Z" fill="white"/>
</g>
</svg>
