<svg width="16" height="16" viewBox="0 0 16 16" fill="none" xmlns="http://www.w3.org/2000/svg">
<path d="M0.267237 5.19755H3.4875V15.6467H0.267237V5.19755ZM1.87069 0C2.89957 0 3.72802 0.850508 3.72802 1.87652C3.72802 2.90253 2.89957 3.76654 1.87069 3.76654C0.841812 3.76654 0 2.91603 0 1.87652C0 0.837008 0.82845 0 1.87069 0Z" fill="#2E368F"/>
<path d="M5.50293 5.19693H8.58956V6.62795H8.62965C9.05723 5.80444 10.1128 4.94043 11.6762 4.94043C14.9365 4.94043 15.5245 7.10045 15.5245 9.92198V15.646H12.3176V10.57C12.3176 9.35497 12.2909 7.80246 10.6473 7.80246C9.00379 7.80246 8.72318 9.12547 8.72318 10.489V15.6595H5.51628V5.19693H5.50293Z" fill="#2E368F"/>
</svg>
