<svg width="17" height="17" viewBox="0 0 17 17" fill="none" xmlns="http://www.w3.org/2000/svg">
<path d="M0.875201 5.49299H4.27851V16.536H0.875201V5.49299ZM2.5698 0C3.65716 0 4.5327 0.898854 4.5327 1.98318C4.5327 3.06752 3.65716 3.98064 2.5698 3.98064C1.48244 3.98064 0.592773 3.08178 0.592773 1.98318C0.592773 0.884586 1.46831 0 2.5698 0Z" fill="#2E368F"/>
<path d="M6.40869 5.49252H9.67078V7.00488H9.71314C10.165 6.13456 11.2806 5.22144 12.9329 5.22144C16.3785 5.22144 16.9999 7.50424 16.9999 10.4861V16.5356H13.6107V11.171C13.6107 9.88691 13.5825 8.24615 11.8455 8.24615C10.1085 8.24615 9.81199 9.64437 9.81199 11.0854V16.5498H6.42281V5.49252H6.40869Z" fill="#2E368F"/>
</svg>
