<svg width="20" height="20" viewBox="0 0 20 20" fill="none" xmlns="http://www.w3.org/2000/svg">
<mask id="mask0_42_1721" style="mask-type:alpha" maskUnits="userSpaceOnUse" x="0" y="0" width="20" height="20">
<rect width="20" height="20" fill="#D9D9D9"/>
</mask>
<g mask="url(#mask0_42_1721)">
<path d="M3.33317 16.6666C2.87484 16.6666 2.48248 16.5034 2.15609 16.177C1.8297 15.8506 1.6665 15.4583 1.6665 14.9999V4.99992C1.6665 4.54159 1.8297 4.14922 2.15609 3.82284C2.48248 3.49645 2.87484 3.33325 3.33317 3.33325H16.6665C17.1248 3.33325 17.5172 3.49645 17.8436 3.82284C18.17 4.14922 18.3332 4.54159 18.3332 4.99992V14.9999C18.3332 15.4583 18.17 15.8506 17.8436 16.177C17.5172 16.5034 17.1248 16.6666 16.6665 16.6666H3.33317ZM9.99984 10.8333L16.6665 6.66659V4.99992L9.99984 9.16658L3.33317 4.99992V6.66659L9.99984 10.8333Z" fill="#2E368F"/>
</g>
</svg>
