<svg width="20" height="21" viewBox="0 0 20 21" fill="none" xmlns="http://www.w3.org/2000/svg">
<g clip-path="url(#clip0_98_433)">
<path d="M10.2449 -6.27182e-06C12.1603 0.676286 14.0738 1.36034 15.9929 2.0279C17.4929 2.54992 17.2431 2.46162 16.6762 3.68031C16.2958 4.49729 16.2778 4.50408 15.4497 4.20329C13.8239 3.61142 12.1972 3.02342 10.5713 2.43154C10.1578 2.28115 9.77453 2.286 9.35246 2.47229C8.10991 3.02051 6.84844 3.52312 5.59548 4.04708C5.19518 4.21494 4.94818 4.9805 5.19139 5.32786C5.34943 5.55394 5.60968 5.50639 5.84153 5.50639C9.07234 5.50639 12.3032 5.50639 15.534 5.50639C16.6999 5.50639 17.0538 5.86443 17.0547 7.04527C17.0547 7.9457 17.0614 8.84613 17.0528 9.74656C17.0462 10.4723 16.9667 10.5781 16.3071 10.8352C14.4031 11.5775 12.4962 12.312 10.5969 13.065C10.1654 13.2357 9.76885 13.2367 9.32975 13.0795C7.36419 12.3741 5.39107 11.693 3.42079 11.0031C2.85014 10.8032 2.81418 10.7256 3.0555 10.1832C3.18515 9.89308 3.34697 9.6146 3.44634 9.31381C3.59964 8.84904 3.87598 8.79956 4.2829 8.94995C5.92008 9.55542 7.56766 10.1337 9.2001 10.7518C9.7291 10.9517 10.2032 10.9662 10.7313 10.7343C11.9322 10.2075 13.1549 9.73395 14.3671 9.23425C14.8782 9.02273 15.0135 8.72873 14.8772 8.0796C14.7845 7.63521 14.4163 7.72254 14.1173 7.72254C10.8553 7.71769 7.59321 7.71963 4.33117 7.71963C3.40375 7.71963 2.98452 7.30143 2.97979 6.35152C2.97506 5.35503 2.99304 4.35757 2.98452 3.36108C2.98074 2.87885 3.18609 2.59746 3.6252 2.42475C5.55573 1.66501 7.4787 0.885869 9.40451 0.114488C9.47265 0.0873199 9.56539 0.103815 9.58526 -0.000976562C9.80576 -6.27182e-06 10.0253 -6.27182e-06 10.2449 -6.27182e-06Z" fill="#2E368F"/>
<path d="M9.96702 16.3105C9.99352 16.3135 10.021 16.3164 10.0475 16.3202C12.2411 17.2886 14.4357 18.2569 16.6293 19.2253C16.6264 19.2408 16.6274 19.2583 16.6208 19.2728C16.3586 19.8181 16.2233 20.5517 15.7965 20.8534C15.4104 21.1261 14.7073 20.935 14.1442 20.9359C10.9758 20.9388 7.80842 20.9301 4.64006 20.9476C4.28329 20.9495 4.10822 20.8379 3.98046 20.509C3.81959 20.0927 3.60571 19.6969 3.41455 19.2932C3.50445 19.1176 3.68899 19.0885 3.8423 19.0206C5.88261 18.1153 7.92576 17.2139 9.96702 16.3115V16.3105Z" fill="#2E368F"/>
<path d="M9.96688 16.3106C7.92467 17.213 5.88246 18.1134 3.84215 19.0197C3.68884 19.0876 3.50525 19.1167 3.4144 19.2923C2.27501 16.8676 1.13561 14.4438 0 12.0268C0.117346 11.9191 0.197786 11.9948 0.279171 12.0307C3.44279 13.4153 6.60642 14.8008 9.76909 16.1874C9.83912 16.2184 9.90063 16.2689 9.96688 16.3106Z" fill="#2E368F"/>
<path d="M16.6292 19.2253C14.4356 18.257 12.241 17.2886 10.0474 16.3203C12.3971 15.284 14.7431 14.2419 17.0967 13.2153C18.0279 12.8088 18.9364 12.344 19.9035 12.0258C19.9196 12.0432 19.9357 12.0597 19.9527 12.0762C19.26 13.5802 18.5692 15.0861 17.8727 16.5881C17.4638 17.4701 17.0446 18.3462 16.6292 19.2253Z" fill="#2E368F"/>
<path d="M19.9033 12.0257C19.9336 11.9927 19.9667 11.9675 19.9998 12.018C20.0036 12.0238 19.9696 12.0558 19.9535 12.0752C19.9364 12.0587 19.9204 12.0422 19.9043 12.0247L19.9033 12.0257Z" fill="#2E368F"/>
</g>
<defs>
<clipPath id="clip0_98_433">
<rect width="20" height="21" fill="white"/>
</clipPath>
</defs>
</svg>
