<svg width="82" height="82" viewBox="0 0 82 82" fill="none" xmlns="http://www.w3.org/2000/svg">
<mask id="mask0_45_1830" style="mask-type:alpha" maskUnits="userSpaceOnUse" x="0" y="0" width="82" height="82">
<rect width="81.533" height="81.533" fill="#D9D9D9"/>
</mask>
<g mask="url(#mask0_45_1830)">
<path d="M16.4762 44.6733L36.5198 15.2025V44.6733H16.4762ZM19.5337 42.9747H34.8212V20.8928L19.5337 42.9747ZM45.8621 44.6733C46.8812 41.2194 47.5324 38.0345 47.8155 35.1186C48.0986 32.2027 48.2401 29.3292 48.2401 26.4982C48.2401 22.8745 48.0419 19.6896 47.6456 16.9436C47.2493 14.1975 46.6831 10.956 45.947 7.21906C49.5141 9.08752 52.5574 11.4373 55.077 14.2683C57.5966 17.0993 59.6774 20.1851 61.3194 23.5256C62.9613 26.8662 64.2353 30.3625 65.1412 34.0145C66.0471 37.6665 66.67 41.2194 67.0097 44.6733H45.8621ZM48.1552 42.9747H65.1412C64.5184 37.1428 62.8906 31.4808 60.2577 25.9886C57.6249 20.4965 53.7606 15.6555 48.6648 11.4656C49.1177 14.0135 49.4433 16.5897 49.6415 19.1942C49.8396 21.7987 49.9387 24.2334 49.9387 26.4982C49.9387 28.763 49.783 31.3109 49.4716 34.1419C49.1602 36.9729 48.7214 39.9172 48.1552 42.9747ZM30.5746 65.7359C28.9327 65.7359 27.2057 65.3538 25.3939 64.5894C23.5821 63.825 21.9118 62.5652 20.383 60.81C19.9867 61.3762 19.6611 61.8433 19.4063 62.2113C19.1515 62.5794 18.8543 62.9616 18.5146 63.3579C16.7593 62.0556 15.2589 60.5269 14.0133 58.7717C12.7676 57.0164 11.7768 55.148 11.0407 53.1663H70.4918C69.7558 55.148 68.7649 57.0164 67.5193 58.7717C66.2736 60.5269 64.7732 62.0556 63.018 63.3579C62.6782 62.9616 62.3668 62.5794 62.0837 62.2113C61.8006 61.8433 61.4892 61.3762 61.1495 60.81C59.6208 62.6218 57.9363 63.8958 56.0962 64.6318C54.256 65.3679 52.5432 65.7359 50.9579 65.7359C49.3159 65.7359 47.5748 65.3679 45.7347 64.6318C43.8945 63.8958 42.2384 62.5935 40.7663 60.7251C39.2375 62.5369 37.5531 63.825 35.7129 64.5894C33.8728 65.3538 32.16 65.7359 30.5746 65.7359ZM10.3613 75.2481V73.5495H10.1914C12.1165 73.5495 13.9425 73.1956 15.6694 72.4879C17.3963 71.7801 18.9675 70.8601 20.383 69.7277C21.9118 70.8601 23.5113 71.7943 25.1816 72.5303C26.8519 73.2664 28.6496 73.6344 30.5746 73.6344C32.4431 73.6344 34.2408 73.2664 35.9677 72.5303C37.6946 71.7943 39.2941 70.8601 40.7663 69.7277C42.2384 70.8601 43.8238 71.7943 45.5224 72.5303C47.221 73.2664 49.0328 73.6344 50.9579 73.6344C52.8263 73.6344 54.6382 73.2664 56.3934 72.5303C58.1486 71.7943 59.734 70.8601 61.1495 69.7277C62.6216 70.8601 64.207 71.7801 65.9056 72.4879C67.6042 73.1956 69.416 73.5495 71.3411 73.5495H71.1713V75.2481H71.3411C69.6991 75.2481 68.0289 75.0358 66.3302 74.6111C64.6316 74.1865 62.9047 73.4929 61.1495 72.5303C59.3943 73.4929 57.6674 74.1865 55.9688 74.6111C54.2702 75.0358 52.5999 75.2481 50.9579 75.2481C49.3159 75.2481 47.6456 75.0216 45.947 74.5687C44.2484 74.1157 42.5215 73.4363 40.7663 72.5303C39.011 73.4363 37.2841 74.1157 35.5855 74.5687C33.8869 75.0216 32.2166 75.2481 30.5746 75.2481C28.9327 75.2481 27.2624 75.0358 25.5638 74.6111C23.8652 74.1865 22.1382 73.4929 20.383 72.5303C18.6278 73.4929 16.9009 74.1865 15.2023 74.6111C13.5037 75.0358 11.8334 75.2481 10.1914 75.2481H10.3613Z" fill="white"/>
</g>
</svg>
