<svg width="82" height="82" viewBox="0 0 82 82" fill="none" xmlns="http://www.w3.org/2000/svg">
<mask id="mask0_45_1842" style="mask-type:alpha" maskUnits="userSpaceOnUse" x="0" y="0" width="82" height="82">
<rect width="81.533" height="81.533" fill="#D9D9D9"/>
</mask>
<g mask="url(#mask0_45_1842)">
<path d="M19.0041 61.3196C16.6397 61.3196 14.6364 60.4938 12.9945 58.8422C11.3525 57.1912 10.5315 55.186 10.5315 52.8266H7.13428V23.1011C7.13428 21.8158 7.54902 20.7584 8.3785 19.9289C9.20799 19.0994 10.2654 18.6847 11.5506 18.6847H55.0349V29.216H62.169L74.399 46.3719V52.8266H69.9826C69.9826 55.186 69.1548 57.1912 67.4992 58.8422C65.8442 60.4938 63.8342 61.3196 61.4692 61.3196C59.1048 61.3196 57.1015 60.4938 55.4595 58.8422C53.8176 57.1912 52.9966 55.186 52.9966 52.8266H27.5175C27.5175 55.2047 26.6897 57.2147 25.0342 58.8567C23.3792 60.4986 21.3691 61.3196 19.0041 61.3196ZM19.0245 59.621C20.9156 59.621 22.5208 58.9614 23.84 57.6422C25.1593 56.3229 25.8189 54.7177 25.8189 52.8266C25.8189 50.9355 25.1593 49.3303 23.84 48.0111C22.5208 46.6918 20.9156 46.0322 19.0245 46.0322C17.1334 46.0322 15.5282 46.6918 14.209 48.0111C12.8897 49.3303 12.2301 50.9355 12.2301 52.8266C12.2301 54.7177 12.8897 56.3229 14.209 57.6422C15.5282 58.9614 17.1334 59.621 19.0245 59.621ZM8.83288 51.128H10.1918C10.5315 49.2029 11.5648 47.5893 13.2917 46.287C15.0186 44.9847 16.9296 44.3336 19.0245 44.3336C21.0062 44.3336 22.8888 44.9706 24.6724 46.2445C26.4559 47.5185 27.5042 49.1463 27.8173 51.128H53.3363V20.3833H11.5506C10.8712 20.3833 10.2484 20.6664 9.68218 21.2326C9.11598 21.7988 8.83288 22.4216 8.83288 23.1011V51.128ZM61.4896 59.621C63.3807 59.621 64.9859 58.9614 66.3051 57.6422C67.6244 56.3229 68.284 54.7177 68.284 52.8266C68.284 50.9355 67.6244 49.3303 66.3051 48.0111C64.9859 46.6918 63.3807 46.0322 61.4896 46.0322C59.5985 46.0322 57.9933 46.6918 56.674 48.0111C55.3548 49.3303 54.6952 50.9355 54.6952 52.8266C54.6952 54.7177 55.3548 56.3229 56.674 57.6422C57.9933 58.9614 59.5985 59.621 61.4896 59.621ZM55.0349 45.013L71.3415 44.9281L61.0649 30.9146H55.0349V45.013Z" fill="white"/>
</g>
</svg>
